<?xml version="1.0" encoding="UTF-8" standalone="no"?>
<!DOCTYPE svg PUBLIC "-//W3C//DTD SVG 1.1//EN" "http://www.w3.org/Graphics/SVG/1.1/DTD/svg11.dtd">
<svg width="100%" height="100%" viewBox="0 0 250 250" version="1.1"
  xmlns="http://www.w3.org/2000/svg"
  xmlns:xlink="http://www.w3.org/1999/xlink" xml:space="preserve"
  xmlns:serif="http://www.serif.com/" style="fill-rule:evenodd;clip-rule:evenodd;stroke-linejoin:round;stroke-miterlimit:2;">
  <g id="Logo">
    <path id="C" d="M113.41,17.713c-11.746,-7.444 -25.319,-11.391 -39.17,-11.391c-40.797,-0 -73.919,33.59 -73.919,74.964c-0,41.375 33.122,74.965 73.919,74.965c13.851,0 27.424,-3.947 39.17,-11.391l-23.253,-37.739c-4.773,3.025 -10.289,4.629 -15.917,4.629c-16.579,0 -30.039,-13.65 -30.039,-30.464c0,-16.813 13.46,-30.463 30.039,-30.463c5.628,-0 11.144,1.604 15.917,4.629l23.253,-37.739Z" style="fill:#00a0ff;"/>
    <g id="G">
      <style>
        path {
          fill: black;
        }
        @media (prefers-color-scheme: dark) {
          path {
            fill: white;
          }
        }
      </style>
      <path d="M175.634,6.193c40.789,0 73.904,33.584 73.904,74.951c0,41.366 -33.115,74.95 -73.904,74.95c-40.789,-0 -73.904,-33.584 -73.904,-74.95c0,-41.367 33.115,-74.951 73.904,-74.951Zm0,44.97c16.316,0 29.562,13.434 29.562,29.981c-0,16.546 -13.246,29.98 -29.562,29.98c-16.315,-0 -29.561,-13.434 -29.561,-29.98c-0,-16.547 13.246,-29.981 29.561,-29.981Z"/>
      <path d="M125.51,235.765c13.034,8.822 28.241,13.516 43.782,13.516c44.396,0 80.387,-37.509 80.387,-83.778l-44.05,-0c0,20.915 -16.268,37.87 -36.337,37.87c-7.025,0 -13.899,-2.122 -19.791,-6.109l-23.991,38.501Z"/>
      <path d="M205.6,6.271l-0,162.306l44.062,-0l0,-162.306l-44.062,0Z"/>
    </g>
  </g>
</svg>
